{"title":"New York Waiting.[x264](AC3)(2 ch)Nordic_sub.mkv","uid":5209952,"size":1580546865,"categoryP":"video","categoryS":"movies","magnet":"?xt=urn:btih:0460f997d3a8eb884f4a2747cb94282aa6569556&amp;dn=New+York+Waiting.%5Bx264%5D%28AC3%29%282+ch%29Nordic_sub.mkv&amp;tr=udp%3A%2F%2Ftracker.openbittorrent.com%3A80&amp;tr=udp%3A%2F%2Fopen.demonii.com%3A1337&amp;tr=udp%3A%2F%2Ftracker.coppersurfer.tk%3A6969&amp;tr=udp%3A%2F%2Fexodus.desync.com%3A6969","seeders":0,"leechers":1,"uploader":"Zen_Bud","files":-1,"time":1260548016,"description":"General\nComplete name                    : New York Waiting.mkv\nFormat                           : Matroska\nFile size                        : 1.47 GiB\nDuration                         : 1h 28mn\nOverall bit rate                 : 2 379 Kbps\n\n\nVideo\nID                               : 1\nFormat                           : AVC\n\nCodec ID                         : V_MPEG4/ISO/AVC\nDuration                         : 1h 28mn\nBit rate                         : 2 136 Kbps\nNominal bit rate                 : 2 171 Kbps\nWidth                            : 720 pixels\nHeight                           : 576 pixels\nDisplay aspect ratio             : 16/9\nFrame rate                       : 24.985 fps\nStandard                         : PAL\nResolution                       : 24 bits\nColorimetry                      : 4:2:0\nScan type                        : Progressive\nBits/(Pixel*Frame)               : 0.206\nStream size                      : 1.32 GiB (90%)\nWriting library                  : x264 core 79\n aq=1:1.00\n\nAudio\nID                               : 2\nFormat                           : AC-3\nFormat/Info                      : Audio Coding 3\nCodec ID                         : A_AC3\nDuration                         : 1h 28mn\nBit rate mode                    : Constant\nBit rate                         : 192 Kbps\nChannel(s)                       : 2 channels\nChannel positions                : L R\nSampling rate                    : 48.0 KHz\nStream size                      : 122 MiB (8%)\nLanguage                         : English\n\nText #1\nLanguage                         : Swedish\n\nText #2\nLanguage                         : Norwegian\n\nText #3\nLanguage                         : Danish\n\nText #4\nLanguage                         : Finnish","torrent":{"xt":"urn:btih:0460f997d3a8eb884f4a2747cb94282aa6569556","amp;dn":"New+York+Waiting.%5Bx264%5D%28AC3%29%282+ch%29Nordic_sub.mkv","amp;tr":["udp%3A%2F%2Ftracker.openbittorrent.com%3A80","udp%3A%2F%2Fopen.demonii.com%3A1337","udp%3A%2F%2Ftracker.coppersurfer.tk%3A6969","udp%3A%2F%2Fexodus.desync.com%3A6969"],"infoHash":"0460f997d3a8eb884f4a2747cb94282aa6569556","infoHashBuffer":{"type":"Buffer","data":[4,96,249,151,211,168,235,136,79,74,39,71,203,148,40,42,166,86,149,86]},"announce":[],"urlList":[]}}